<svg xmlns="http://www.w3.org/2000/svg" viewBox="0 0 148 53"><defs><style>.cls-1,.cls-2{fill:#fff;}.cls-2,.cls-3{fill-rule:evenodd;}.cls-3{fill:#efefef;}</style></defs><title>Asset 1</title><g id="Layer_2" data-name="Layer 2"><g id="Layer_1-2" data-name="Layer 1"><path id="Shape" class="cls-1" d="M46.36,19.3a2.74,2.74,0,1,1,3-2.74,2.69,2.69,0,0,1-.88,2A3,3,0,0,1,46.36,19.3Zm-2.1,3.33h4.22V43.78H44.26Z"/><path class="cls-1" d="M52.78,31.65a10.91,10.91,0,0,1,6.36-10.08A9.93,9.93,0,0,1,70.4,23.93,11.32,11.32,0,0,1,72.64,35.8a10.35,10.35,0,0,1-9.56,6.72,9.85,9.85,0,0,1-6.45-2.37V53H52.78Zm16.76,0a6.46,6.46,0,1,0-12.91,0h0a6.46,6.46,0,1,0,12.91,0Z"/><path class="cls-1" d="M95.22,33a9.76,9.76,0,1,1-1.72-5.71l-11,11.1a6.12,6.12,0,0,0,9-5.39ZM79.84,35.73l8.29-8.33a6.23,6.23,0,0,0-2.78-.68A6.16,6.16,0,0,0,79.2,33a6.86,6.86,0,0,0,.67,2.74Z"/><path class="cls-1" d="M118.17,11.52V33A10.74,10.74,0,0,1,111.82,43a10,10,0,0,1-11.26-2.31A11,11,0,0,1,98.3,29a10.35,10.35,0,0,1,9.55-6.63,10,10,0,0,1,6.44,2.36V11.52ZM114.29,33h0a6.45,6.45,0,1,0-6.44,6.79,6.34,6.34,0,0,0,4.6-2A6.81,6.81,0,0,0,114.29,33Z"/><path class="cls-1" d="M125.63,19.3a2.74,2.74,0,1,1,2.87-2.74A2.81,2.81,0,0,1,125.63,19.3Zm-2.12,3.33h4.23V43.78h-4.23Z"/><path id="Path" class="cls-1" d="M129.64,42.63v-3.9c3.9,0,7.05-2.89,7.05-6.46a9.94,9.94,0,0,1,3.3-7.35,11.82,11.82,0,0,1,8-3V25.8c-3.89,0-7.05,2.9-7.05,6.47,0,5.72-5.07,10.36-11.31,10.36Z"/><path class="cls-2" d="M15.89,21.91a10.25,10.25,0,0,0-3.29.48C9.2,23.11.68,24.76.15,25s.33.65,2.89,2.08,8.13,4.88,9.25,5.16,4.38-.59,6.94-1.09,5-.86,4.85-1.28a31.47,31.47,0,0,0-3.44-3.32c-.37-.35-4.49-4.56-4.79-4.63"/><path class="cls-2" d="M16.06,23.84a81.35,81.35,0,0,0,9.7,8.45c2.07,1.35,2.82,1.5,2.6.38a6.65,6.65,0,0,0-1.25-2.27c-.1-.26,2.22-4.31,3.86-7.68s2.78-5.65,2.1-7.75S28.58,3,28.29,2.51s-.48-.3-1.85,2.36c-2.71,5.54-5.31,10.54-8.45,15.7-1,1.75-1.91,3.2-1.93,3.33"/><path class="cls-3" d="M18.36,20.48C19.1,18.1,23.63,3.39,24.13,2c1.09-2.94,1.09-2.37,1.79.08a7,7,0,0,1,.47,2.16c-.13.45-5.86,12.51-6.74,14.33s-1.29,2.62-1.29,1.94"/><path class="cls-1" d="M16,20.12A7.85,7.85,0,0,1,14.61,16a10.08,10.08,0,0,1,.61-2.69v-.11c.13-.44-.12-.55-.21-.56a.54.54,0,0,0-.57.32,8.3,8.3,0,0,0-.64,4,11.34,11.34,0,0,0,1.53,3.55.42.42,0,0,0,.36.21.35.35,0,0,0,.3-.14.41.41,0,0,0,0-.48Z"/><path class="cls-1" d="M13.4,18.88a18.65,18.65,0,0,1-4.71-4,7.18,7.18,0,0,1-1.1-4.63V10c0-.51,0-.74-.26-.79s-.23,0-.36.31a6.89,6.89,0,0,0,0,2.22c.33,3.33,2,4.8,4.36,6.48a11.75,11.75,0,0,0,2.15,1.35h0a.28.28,0,0,0,.26-.16C13.79,19.35,13.79,19.14,13.4,18.88Z"/></g></g></svg>