<?xml version="1.0" encoding="UTF-8"?>
<svg width="32px" height="34px" viewBox="0 0 32 34" version="1.1" xmlns="http://www.w3.org/2000/svg" xmlns:xlink="http://www.w3.org/1999/xlink">
    <title>Note</title>
    <g id="Page-1" stroke="none" stroke-width="1" fill="none" fill-rule="evenodd">
        <g id="LP-Component-/-Tablet-768px-/-Tab-Panel" transform="translate(-242.000000, -53.000000)">
            <g id="Group-6" transform="translate(195.000000, 53.000000)">
                <g id="Note" transform="translate(47.000000, 0.000000)">
                    <rect id="Rectangle" x="0" y="0" width="32" height="34"></rect>
                    <line x1="12" y1="13" x2="20" y2="13" id="Path" stroke="#B00057" stroke-width="2" stroke-linecap="round" stroke-linejoin="round"></line>
                    <line x1="12" y1="17" x2="20" y2="17" id="Path" stroke="#B00057" stroke-width="2" stroke-linecap="round" stroke-linejoin="round"></line>
                    <line x1="12" y1="21" x2="16" y2="21" id="Path" stroke="#B00057" stroke-width="2" stroke-linecap="round" stroke-linejoin="round"></line>
                    <path d="M19.5857863,28 L6,28 C5.44771525,28 5,27.5319341 5,26.9545455 L5,6.04545455 C5,5.46806594 5.44771525,5 6,5 L26,5 C26.5522847,5 27,5.46806594 27,6.04545455 L27,20.2487765 C27,20.5260487 26.894643,20.7919644 26.7071062,20.9880253 L20.2928937,27.6937929 C20.1053573,27.889854 19.8510031,28 19.5857863,28 Z" id="Path" stroke="#B00057" stroke-width="2" stroke-linecap="round" stroke-linejoin="round"></path>
                    <polyline id="Path" stroke="#B00057" stroke-width="2" stroke-linecap="round" stroke-linejoin="round" points="27 21 20 21 20 28"></polyline>
                </g>
            </g>
        </g>
    </g>
</svg>