<?xml version="1.0" encoding="UTF-8" standalone="no"?>
<svg
   viewBox="0 0 28 28"
   version="1.1"
   id="svg2262"
   sodipodi:docname="code-white.svg"
   inkscape:version="1.1.2 (0a00cf5339, 2022-02-04)"
   xmlns:inkscape="http://www.inkscape.org/namespaces/inkscape"
   xmlns:sodipodi="http://sodipodi.sourceforge.net/DTD/sodipodi-0.dtd"
   xmlns="http://www.w3.org/2000/svg"
   xmlns:svg="http://www.w3.org/2000/svg"
   xmlns:rdf="http://www.w3.org/1999/02/22-rdf-syntax-ns#"
   xmlns:cc="http://creativecommons.org/ns#"
   xmlns:dc="http://purl.org/dc/elements/1.1/">
  <sodipodi:namedview
     id="namedview2264"
     pagecolor="#ffffff"
     bordercolor="#666666"
     borderopacity="1.0"
     inkscape:pageshadow="2"
     inkscape:pageopacity="0.0"
     inkscape:pagecheckerboard="0"
     showgrid="false"
     inkscape:zoom="16.321429"
     inkscape:cx="14"
     inkscape:cy="14"
     inkscape:window-width="1920"
     inkscape:window-height="1043"
     inkscape:window-x="0"
     inkscape:window-y="0"
     inkscape:window-maximized="1"
     inkscape:current-layer="svg2262" />
  <defs
     id="defs2244">
    <style
       id="style2242">.cls-1{fill:none;}.cls-2{fill:#2e3243;}</style>
  </defs>
  <title
     id="title2246">code</title>
  <g
     id="Layer_2"
     data-name="Layer 2">
    <g
       id="Layer_1-2"
       data-name="Layer 1">
      <g
         id="Symbols">
        <g
           id="Code">
          <g
             id="Rectangle">
            <rect
               class="cls-1"
               width="28"
               height="28"
               id="rect2248" />
          </g>
          <g
             id="Path">
            <path
               class="cls-2"
               d="M7,19.44a1,1,0,0,1-.68-.25L1.07,14.81a1.05,1.05,0,0,1,0-1.62L6.32,8.81a1.06,1.06,0,0,1,1.36,1.63L3.41,14l4.27,3.56a1.05,1.05,0,0,1,.13,1.49A1,1,0,0,1,7,19.44Z"
               id="path2251"
               style="fill:#ffffff;fill-opacity:1" />
          </g>
          <path
             class="cls-2"
             d="M21,19.44a1,1,0,0,1-.81-.39,1.05,1.05,0,0,1,.13-1.49L24.59,14l-4.27-3.56a1.06,1.06,0,0,1,1.36-1.63l5.25,4.38a1.05,1.05,0,0,1,0,1.62l-5.25,4.38A1,1,0,0,1,21,19.44Z"
             id="path2254"
             style="fill:#ffffff;fill-opacity:1" />
          <path
             class="cls-2"
             d="M10.5,24.69a.92.92,0,0,1-.36-.07,1.07,1.07,0,0,1-.64-1.36L16.5,4a1.06,1.06,0,0,1,2,.73L11.5,24A1.07,1.07,0,0,1,10.5,24.69Z"
             id="path2256"
             style="fill:#ffffff;fill-opacity:1" />
        </g>
      </g>
    </g>
  </g>
  <metadata
     id="metadata2495">
    <rdf:RDF>
      <cc:Work
         rdf:about="">
        <dc:title>code</dc:title>
      </cc:Work>
    </rdf:RDF>
  </metadata>
</svg>
