<?xml version="1.0" encoding="utf-8"?>
<!-- Generator: Adobe Illustrator 20.0.0, SVG Export Plug-In . SVG Version: 6.00 Build 0)  -->
<svg version="1.1" id="Layer_1" xmlns="http://www.w3.org/2000/svg" x="0px" y="0px"
     viewBox="0 0 16 13" style="enable-background:new 0 0 16 13;" xml:space="preserve">
<style type="text/css">
	.st0{fill:#818E94;}
</style>
<title>twitter [#154]</title>
<desc>Created with Sketch.</desc>
<g id="Symbols">
	<g id="Icons-_x2F_-24px-_x2F_-Social-_x2F_-Twitter" transform="translate(-4.000000, -7.000000)">
		<path id="twitter-_x5B__x23_154_x5D_" class="st0" d="M9,19.9c6,0,9.3-4.9,9.3-9.2c0-0.1,0-0.3,0-0.4c0.6-0.5,1.2-1,1.6-1.7
			C19.3,8.9,18.7,9,18,9.1c0.7-0.4,1.2-1,1.4-1.8c-0.6,0.4-1.3,0.6-2.1,0.8C16.1,6.8,14,6.7,12.7,8c-0.9,0.8-1.2,2-0.9,3.1
			C9.2,11,6.7,9.7,5,7.7C4.1,9.2,4.6,11.1,6,12c-0.5,0-1-0.2-1.5-0.4l0,0c0,1.5,1.1,2.9,2.6,3.2c-0.5,0.1-1,0.1-1.5,0.1
			c0.6,1.3,1.9,2.2,3.3,2.2c-1.2,0.9-2.6,1.4-4.1,1.4c-0.3,0-0.5,0-0.8,0C5.5,19.4,7.2,19.9,9,19.9"/>
	</g>
</g>
</svg>
