<!-- Generated by IcoMoon.io -->
<svg version="1.1" xmlns="http://www.w3.org/2000/svg" width="1024" height="1024" viewBox="0 0 1024 1024">
<title></title>
<g id="icomoon-ignore">
</g>
<path d="M431.488 938.112h1.28c49.408 0 94.72-11.968 136-35.84s73.984-57.792 98.304-101.76c24.192-43.84 36.352-91.2 36.352-142.080 0-41.152-7.040-79.168-21.76-113.92 24.32-5.12 53.76-15.104 84.48-34.112 18.56 44.928 28.16 93.632 28.16 146.176 0 97.92-33.28 183.68-101.12 257.28-67.904 73.024-154.304 110.144-259.904 110.144-106.24 0-192.96-36.672-260.288-110.080-67.2-73.408-100.48-159.232-100.48-257.28 0-97.408 31.872-181.76 95.616-253.248 69.76-78.72 158.272-118.144 265.152-118.144 45.056 0 86.784 7.040 125.248 20.992-12.48 24.448-23.808 54.4-26.88 86.592-30.528-12.8-63.36-19.2-98.56-19.2-74.112 0-137.728 27.84-190.912 83.392-53.12 55.68-79.744 122.88-79.744 201.6 0 51.2 12.16 98.56 36.48 142.080 24.192 44.16 56.96 78.080 98.176 101.76 27.52 16 56.64 26.88 87.552 32 264.768-102.4 233.6-604.16 231.68-631.68l2.24 7.040c155.52 415.36-183.488 629.12-183.488 629.12h-3.2zM899.584 23.232c-43.264 92.032-123.52 109.12-123.52 109.12-80.128 20.352-108.16 51.2-108.16 51.2-80.128 80.64-17.024 178.432-17.024 178.432 173.12-39.424 236.352-181.632 236.352-181.632-7.68 95.552-213.76 208.448-213.76 208.448 68.224 66.688 133.312 58.688 176.32 33.088 56.96-33.92 84.352-108.16 84.352-108.16 55.232-165.12-34.56-290.56-34.56-290.56zM473.984 0c85.12 143.104 131.456 271.552 141.888 302.080v-1.28c-20.992-220.48-142.080-300.8-142.080-300.8z"></path>
</svg>
