<?xml version="1.0" encoding="UTF-8"?>
<svg width="148px" height="53px" viewBox="0 0 148 53" version="1.1" xmlns="http://www.w3.org/2000/svg" xmlns:xlink="http://www.w3.org/1999/xlink">
    <title>Logo_Ipedis-(Small)</title>
    <g id="Symbols" stroke="none" stroke-width="1" fill="none" fill-rule="evenodd">
        <g id="Menu" transform="translate(-289.000000, -13.000000)">
            <g id="Logo_Ipedis-(Small)" transform="translate(289.000000, 13.000000)">
                <path d="M46.3601896,19.2954947 C44.7910677,19.2407046 43.5598019,17.9927373 43.5977535,16.4955877 C43.6357051,14.998438 44.9287653,13.8086811 46.49883,13.8262797 C48.0688947,13.8438783 49.3322821,15.0622902 49.3333333,16.559877 C49.3289775,17.3016168 49.0109059,18.0102797 48.4511983,18.525272 C47.8914906,19.0402643 47.1375352,19.3179836 46.3601896,19.2954947 Z M44.2615,22.6316137 L48.4763684,22.6316137 L48.4763684,43.7826087 L44.2615,43.7826087 L44.2615,22.6316137 Z" id="Shape" fill="#0E9980" fill-rule="nonzero"></path>
                <path d="M52.7752064,31.6460926 C52.7686942,27.2385543 55.2820084,23.2615018 59.1418162,21.5716296 C63.001624,19.8817574 67.4466826,20.8123471 70.401808,23.9289511 C73.3569335,27.0455551 74.2393071,31.7335075 72.6369911,35.8042289 C71.0346752,39.8749503 67.2636831,42.525601 63.0845097,42.5187195 C60.7392825,42.5378695 58.4597124,41.702433 56.6311197,40.1536254 L56.6311197,53 L52.7752064,53 L52.7752064,31.6460926 Z M69.5378998,31.6460926 C69.5378998,27.8872281 66.6486187,24.8400663 63.0845097,24.8400663 C59.5204008,24.8400663 56.6311197,27.8872281 56.6311197,31.6460926 L56.6311197,31.6460926 C56.6311197,35.4049571 59.5204008,38.4521189 63.0845097,38.4521189 C66.6486187,38.4521189 69.5378998,35.4049571 69.5378998,31.6460926 Z" id="Shape" fill="#0E9980" fill-rule="nonzero"></path>
                <path d="M95.2248062,32.9924913 C95.1485492,37.8168675 91.5841783,41.8665222 86.825643,42.5351883 C82.0671077,43.2038543 77.5326706,40.2922383 76.1405942,35.6741914 C74.7485178,31.0561444 76.9137049,26.1080571 81.2426895,24.0144079 C85.571674,21.9207587 90.7742193,23.3055515 93.5020834,27.2775645 L82.4889626,38.3830574 C83.3642941,38.8382254 84.3334937,39.0815381 85.3191501,39.0935618 C88.687318,39.0938261 91.4296294,36.374474 91.4717315,32.9924913 L95.2248062,32.9924913 Z M79.8433526,35.7263887 L88.1339561,27.4011305 C87.2699665,26.9636214 86.3174928,26.731113 85.349913,26.7215176 C83.7020303,26.7213314 82.1229469,27.3849637 80.9664241,28.5637411 C79.8099012,29.7425186 79.1726133,31.3379066 79.1973315,32.9924913 C79.225178,33.9419686 79.4559881,34.8743359 79.8741155,35.7263887 L79.8433526,35.7263887 Z" id="Shape" fill="#0E9980" fill-rule="nonzero"></path>
                <path d="M118.170492,11.5217391 L118.170492,33.0287791 C118.183481,37.3676616 115.676062,41.2868426 111.818773,42.95665 C107.961485,44.6264574 103.515071,43.7175681 100.555343,40.6542975 C97.5956145,37.5910269 96.7062959,32.9775203 98.3025661,28.967596 C99.8988363,24.9576717 103.665875,22.3421761 107.845038,22.342155 C110.19031,22.3341704 112.466312,23.1671274 114.288348,24.7002364 L114.288348,11.5217391 L118.170492,11.5217391 Z M114.288348,33.0287791 L114.288348,33.0287791 C114.23516,29.3477872 111.327266,26.4031857 107.78157,26.4398625 C104.235874,26.4765393 101.385068,29.4807089 101.402452,33.1620703 C101.419996,36.8434318 104.299166,39.8183013 107.845038,39.8187157 C109.579328,39.8191713 111.240568,39.093753 112.453178,37.8064666 C113.665788,36.5191802 114.327369,34.7787307 114.288348,32.9786071 L114.288348,33.0287791 Z" id="Shape" fill="#0E9980" fill-rule="nonzero"></path>
                <path d="M125.627907,19.2969885 C124.043834,19.2969885 122.75969,18.0722855 122.75969,16.5615377 C122.75969,15.05079 124.043834,13.826087 125.627907,13.826087 C127.21198,13.826087 128.496124,15.05079 128.496124,16.5615377 C128.486576,18.0684976 127.208008,19.2878827 125.627907,19.2969885 Z M123.511722,22.632904 L127.744092,22.632904 L127.744092,43.7826087 L123.511722,43.7826087 L123.511722,22.632904 Z" id="Shape" fill="#0E9980" fill-rule="nonzero"></path>
                <path d="M129.643411,42.6304348 L129.643411,38.7347854 C133.535182,38.7347854 136.690086,35.8399444 136.690086,32.2689772 C136.680689,29.5140263 137.869248,26.8694246 139.992308,24.9213706 C142.115369,22.9733166 144.997553,21.8827323 148,21.8913043 L148,25.803169 C144.108229,25.803169 140.953325,28.69801 140.953325,32.2689772 C140.943606,37.994066 135.882831,42.6304348 129.643411,42.6304348 L129.643411,42.6304348 Z" id="Path" fill="#0E9980" fill-rule="nonzero"></path>
                <path d="M15.8857584,21.9084985 C14.7758291,21.8866006 13.6692738,22.0489208 12.603749,22.3899352 C9.1961125,23.1120901 0.684872941,24.76273 0.150957544,24.96906 C-0.382957852,25.17539 0.480728819,25.6224383 3.04038204,27.0495541 C5.60003527,28.4766699 11.1747401,31.9326972 12.2896811,32.2078039 C13.4046221,32.4829105 16.6709281,31.6232022 19.2305813,31.1245714 C21.7902345,30.6259406 24.2713708,30.2648631 24.08293,29.835009 C23.8944893,29.4051548 22.3555567,28.1155924 20.6438867,26.516535 C20.2670053,26.1726517 16.1527161,21.960081 15.8543516,21.8913043" id="Path" fill="#EE731B"></path>
                <path d="M16.0620155,23.8370969 C19.0588345,26.9014779 22.3023281,29.7267289 25.7613911,32.2857555 C27.8276314,33.6355412 28.5789914,33.7855174 28.3569987,32.669028 C28.096193,31.8417787 27.6727864,31.072014 27.110424,30.4027211 C27.0079658,30.1360968 29.3303515,26.0867397 30.9696826,22.7206075 C32.6090137,19.3544753 33.7531302,17.0715044 33.0700756,14.9718378 C32.387021,12.8721712 28.5789914,2.97374275 28.2886932,2.50715017 C27.998395,2.04055758 27.810555,2.20719779 26.4444458,4.87344113 C23.7293036,10.4058961 21.1336961,15.4051023 17.9916448,20.5709488 C16.9499865,22.320671 16.0790919,23.7704408 16.0620155,23.903753" id="Path" fill="#0E9980"></path>
                <path d="M18.3565891,20.4821845 C19.1040005,18.095145 23.6324337,3.39098169 24.1307079,1.99058518 C25.215187,-0.953430209 25.215187,-0.380540728 25.9186329,2.07015316 C26.1870097,2.75741451 26.3455997,3.48930112 26.3875969,4.23440231 C26.2557008,4.67998302 20.5255474,16.7424893 19.64624,18.5566393 C18.7669326,20.3707894 18.3565891,21.1823828 18.3565891,20.4980981" id="Path" fill="#E62D52"></path>
                <path d="M15.9739739,20.1151141 C15.1305059,18.8606589 14.6642819,17.4646287 14.6127078,16.0390292 C14.6879363,15.1262395 14.8908878,14.223186 15.217715,13.346988 L15.217715,13.2405231 C15.3500603,12.7994542 15.1042761,12.6929893 15.0097438,12.6777801 C14.9152114,12.6625708 14.5559884,12.6777801 14.4425496,12.9971748 C13.897625,14.2772137 13.6789986,15.6324747 13.7997295,16.982004 C14.0911732,18.2173316 14.6071843,19.4113961 15.3311538,20.5257644 C15.4634991,20.7234849 15.6147509,20.7386942 15.6903768,20.7386942 C15.8158014,20.744549 15.9339688,20.6910781 15.9928804,20.6018108 C16.0913784,20.4478193 16.0842322,20.2638576 15.9739739,20.1151141 L15.9739739,20.1151141 Z" id="Path" fill="#E62D52" fill-rule="nonzero"></path>
                <path d="M13.4005208,18.882232 C11.6197586,17.8205755 10.0260303,16.4630586 8.68534561,14.8659075 C7.80502538,13.5000693 7.41627763,11.8660913 7.58513808,10.2415338 C7.59190813,10.1670201 7.59190813,10.0920293 7.58513808,10.0175157 C7.58513808,9.50547428 7.58513808,9.28145617 7.33366207,9.23345229 C7.08218606,9.18544841 7.09790331,9.23345229 6.97216531,9.53747686 C6.85423947,10.2740098 6.85423947,11.0251237 6.97216531,11.7616566 C7.30222757,15.0899256 8.98397337,16.5620445 11.3258437,18.2421803 C11.9956495,18.7653548 12.7173231,19.2158374 13.479107,19.5862889 L13.4948243,19.5862889 C13.6039087,19.5942981 13.7055707,19.5296111 13.7463003,19.426276 C13.793452,19.3462695 13.793452,19.1382527 13.4005208,18.882232 Z" id="Path" fill="#E62D52" fill-rule="nonzero"></path>
            </g>
        </g>
    </g>
</svg>