<?xml version="1.0" encoding="utf-8"?>
<!-- Generator: Adobe Illustrator 25.0.0, SVG Export Plug-In . SVG Version: 6.00 Build 0)  -->
<svg version="1.1" id="Layer_1" xmlns="http://www.w3.org/2000/svg" xmlns:xlink="http://www.w3.org/1999/xlink" x="0px" y="0px"
	 viewBox="0 0 16 18" style="enable-background:new 0 0 16 18;" xml:space="preserve">
<style type="text/css">
	.st0{fill:#FFFFFF;}
</style>
<desc>Created with Sketch.</desc>
<g id="Symbols">
	<g id="Icons-_x2F_-24px-_x2F_-Audio-_x2F_-Stop" transform="translate(-4.000000, -3.000000)">
		<g id="Group" transform="translate(5.000000, 4.000000)">
			<g id="Rectangle">
				<path class="st0" d="M4,17H0c-0.6,0-1-0.4-1-1V0c0-0.6,0.4-1,1-1h4c0.6,0,1,0.4,1,1v16C5,16.6,4.6,17,4,17z M1,15h2V1H1V15z"/>
			</g>
			<g id="Rectangle-Copy">
				<path class="st0" d="M14,17h-4c-0.6,0-1-0.4-1-1V0c0-0.6,0.4-1,1-1h4c0.6,0,1,0.4,1,1v16C15,16.6,14.6,17,14,17z M11,15h2V1h-2
					V15z"/>
			</g>
		</g>
	</g>
</g>
</svg>
