<?xml version="1.0" encoding="utf-8"?>
<!-- Generator: Adobe Illustrator 23.1.0, SVG Export Plug-In . SVG Version: 6.00 Build 0)  -->
<svg version="1.1" id="Layer_1" xmlns="http://www.w3.org/2000/svg" xmlns:xlink="http://www.w3.org/1999/xlink" x="0px" y="0px"
	 viewBox="0 0 32 34" style="enable-background:new 0 0 32 34;" xml:space="preserve">
<style type="text/css">
	.st0{fill:none;}
	.st1{fill:none;stroke:#FFFFFF;stroke-width:2;stroke-linecap:round;stroke-linejoin:round;}
</style>
<title>Note</title>
<g id="Page-1">
	<g transform="translate(-242.000000, -53.000000)">
		<g id="Group-6" transform="translate(195.000000, 53.000000)">
			<g id="Note" transform="translate(47.000000, 0.000000)">
				<rect id="Rectangle" y="0" class="st0" width="32" height="34"/>
				<line id="Path" class="st1" x1="12" y1="13" x2="20" y2="13"/>
				<line class="st1" x1="12" y1="17" x2="20" y2="17"/>
				<line class="st1" x1="12" y1="21" x2="16" y2="21"/>
				<path class="st1" d="M19.6,28H6c-0.6,0-1-0.5-1-1V6c0-0.6,0.4-1,1-1h20c0.6,0,1,0.5,1,1v14.2c0,0.3-0.1,0.5-0.3,0.7l-6.4,6.7
					C20.1,27.9,19.9,28,19.6,28z"/>
				<polyline class="st1" points="27,21 20,21 20,28 				"/>
			</g>
		</g>
	</g>
</g>
</svg>
