<?xml version="1.0" encoding="utf-8"?>
<!-- Generator: Adobe Illustrator 23.1.0, SVG Export Plug-In . SVG Version: 6.00 Build 0)  -->
<svg version="1.1" id="Layer_1" xmlns="http://www.w3.org/2000/svg" xmlns:xlink="http://www.w3.org/1999/xlink" x="0px" y="0px"
	 viewBox="0 0 32 32" style="enable-background:new 0 0 32 32;" xml:space="preserve">
<style type="text/css">
	.st0{fill:none;}
	.st1{fill:none;stroke:#FFFFFF;stroke-width:2;stroke-linecap:round;stroke-linejoin:round;}
</style>
<title>PresentationChart</title>
<g id="Page-1">
	<g transform="translate(-386.000000, -55.000000)">
		<g id="Group-3" transform="translate(358.000000, 55.000000)">
			<g id="PresentationChart" transform="translate(28.000000, 0.000000)">
				<rect id="Rectangle" y="0" class="st0" width="32" height="32"/>
				<path class="st1" d="M5,6h22c0.6,0,1,0.4,1,1v15c0,0.6-0.4,1-1,1H5c-0.6,0-1-0.4-1-1V7C4,6.4,4.4,6,5,6z"/>
				<line id="Path" class="st1" x1="20" y1="23" x2="24" y2="28"/>
				<line class="st1" x1="12" y1="23" x2="8" y2="28"/>
				<line class="st1" x1="12" y1="15" x2="12" y2="18"/>
				<line class="st1" x1="16" y1="13" x2="16" y2="18"/>
				<line class="st1" x1="20" y1="11" x2="20" y2="18"/>
				<line class="st1" x1="16" y1="6" x2="16" y2="3"/>
			</g>
		</g>
	</g>
</g>
</svg>
