<?xml version="1.0" encoding="UTF-8" standalone="no"?>
<svg
   viewBox="0 0 28 28"
   version="1.1"
   id="svg2601"
   sodipodi:docname="accessibility-icon-white.svg"
   inkscape:version="1.1.2 (0a00cf5339, 2022-02-04)"
   xmlns:inkscape="http://www.inkscape.org/namespaces/inkscape"
   xmlns:sodipodi="http://sodipodi.sourceforge.net/DTD/sodipodi-0.dtd"
   xmlns="http://www.w3.org/2000/svg"
   xmlns:svg="http://www.w3.org/2000/svg"
   xmlns:rdf="http://www.w3.org/1999/02/22-rdf-syntax-ns#"
   xmlns:cc="http://creativecommons.org/ns#"
   xmlns:dc="http://purl.org/dc/elements/1.1/">
  <sodipodi:namedview
     id="namedview2603"
     pagecolor="#ffffff"
     bordercolor="#666666"
     borderopacity="1.0"
     inkscape:pageshadow="2"
     inkscape:pageopacity="0.0"
     inkscape:pagecheckerboard="0"
     showgrid="false"
     inkscape:zoom="16.321429"
     inkscape:cx="14"
     inkscape:cy="14"
     inkscape:window-width="1920"
     inkscape:window-height="1043"
     inkscape:window-x="0"
     inkscape:window-y="0"
     inkscape:window-maximized="1"
     inkscape:current-layer="svg2601" />
  <defs
     id="defs2582">
    <style
       id="style2580">.cls-1{fill:none;}.cls-2{fill:#2e3243;}</style>
  </defs>
  <title
     id="title2584">Asset 2</title>
  <g
     id="Layer_2"
     data-name="Layer 2">
    <g
       id="Layer_1-2"
       data-name="Layer 1">
      <g
         id="Symbols">
        <g
           id="Wheelchair">
          <g
             id="Rectangle">
            <rect
               class="cls-1"
               width="28"
               height="28"
               id="rect2586" />
          </g>
          <g
             id="Oval">
            <path
               class="cls-2"
               d="M10.49,7.62a3.25,3.25,0,1,1,3.25-3.24A3.25,3.25,0,0,1,10.49,7.62Zm0-4.37a1.13,1.13,0,1,0,1.12,1.13A1.13,1.13,0,0,0,10.49,3.25Z"
               id="path2589"
               style="fill:#ffffff;fill-opacity:1" />
          </g>
          <g
             id="Path">
            <path
               class="cls-2"
               d="M23.61,22.5a1.07,1.07,0,0,1-.95-.59l-3.2-6.41h-9a1.06,1.06,0,0,1-1.06-1.06V6.56a1.06,1.06,0,0,1,2.12,0v6.82h8.56a1.06,1.06,0,0,1,.95.58l3.09,6.18,1.75-.58a1.06,1.06,0,0,1,.67,2L24,22.44A1,1,0,0,1,23.61,22.5Z"
               id="path2592"
               style="fill:#ffffff;fill-opacity:1" />
          </g>
          <path
             class="cls-2"
             d="M11.36,25.56H11a8.06,8.06,0,0,1,.33-16.11h6.13a1.06,1.06,0,1,1,0,2.12H11.36a5.94,5.94,0,1,0,5.93,6.31,1.06,1.06,0,0,1,2.12.13A8.11,8.11,0,0,1,11.36,25.56Z"
             id="path2595"
             style="fill:#ffffff;fill-opacity:1" />
        </g>
      </g>
    </g>
  </g>
  <metadata
     id="metadata2948">
    <rdf:RDF>
      <cc:Work
         rdf:about="">
        <dc:title>Asset 2</dc:title>
      </cc:Work>
    </rdf:RDF>
  </metadata>
</svg>
