<svg xmlns="http://www.w3.org/2000/svg" viewBox="0 0 28 28"><defs><style>.cls-1{fill:none;}.cls-2{fill:#2e3243;}</style></defs><title>Asset 2</title><g id="Layer_2" data-name="Layer 2"><g id="Layer_1-2" data-name="Layer 1"><g id="Symbols"><g id="Wheelchair"><g id="Rectangle"><rect class="cls-1" width="28" height="28"/></g><g id="Oval"><path class="cls-2" d="M10.49,7.62a3.25,3.25,0,1,1,3.25-3.24A3.25,3.25,0,0,1,10.49,7.62Zm0-4.37a1.13,1.13,0,1,0,1.12,1.13A1.13,1.13,0,0,0,10.49,3.25Z"/></g><g id="Path"><path class="cls-2" d="M23.61,22.5a1.07,1.07,0,0,1-.95-.59l-3.2-6.41h-9a1.06,1.06,0,0,1-1.06-1.06V6.56a1.06,1.06,0,0,1,2.12,0v6.82h8.56a1.06,1.06,0,0,1,.95.58l3.09,6.18,1.75-.58a1.06,1.06,0,0,1,.67,2L24,22.44A1,1,0,0,1,23.61,22.5Z"/></g><path class="cls-2" d="M11.36,25.56H11a8.06,8.06,0,0,1,.33-16.11h6.13a1.06,1.06,0,1,1,0,2.12H11.36a5.94,5.94,0,1,0,5.93,6.31,1.06,1.06,0,0,1,2.12.13A8.11,8.11,0,0,1,11.36,25.56Z"/></g></g></g></g></svg>