<svg xmlns="http://www.w3.org/2000/svg" viewBox="0 0 28 28"><defs><style>.cls-1{fill:none;}.cls-2{fill:#2e3243;}</style></defs><title>code</title><g id="Layer_2" data-name="Layer 2"><g id="Layer_1-2" data-name="Layer 1"><g id="Symbols"><g id="Code"><g id="Rectangle"><rect class="cls-1" width="28" height="28"/></g><g id="Path"><path class="cls-2" d="M7,19.44a1,1,0,0,1-.68-.25L1.07,14.81a1.05,1.05,0,0,1,0-1.62L6.32,8.81a1.06,1.06,0,0,1,1.36,1.63L3.41,14l4.27,3.56a1.05,1.05,0,0,1,.13,1.49A1,1,0,0,1,7,19.44Z"/></g><path class="cls-2" d="M21,19.44a1,1,0,0,1-.81-.39,1.05,1.05,0,0,1,.13-1.49L24.59,14l-4.27-3.56a1.06,1.06,0,0,1,1.36-1.63l5.25,4.38a1.05,1.05,0,0,1,0,1.62l-5.25,4.38A1,1,0,0,1,21,19.44Z"/><path class="cls-2" d="M10.5,24.69a.92.92,0,0,1-.36-.07,1.07,1.07,0,0,1-.64-1.36L16.5,4a1.06,1.06,0,0,1,2,.73L11.5,24A1.07,1.07,0,0,1,10.5,24.69Z"/></g></g></g></g></svg>