<?xml version="1.0" encoding="UTF-8" standalone="no"?>
<svg
   viewBox="0 0 28 28"
   version="1.1"
   id="svg1848"
   sodipodi:docname="document-white.svg"
   inkscape:version="1.1.2 (0a00cf5339, 2022-02-04)"
   xmlns:inkscape="http://www.inkscape.org/namespaces/inkscape"
   xmlns:sodipodi="http://sodipodi.sourceforge.net/DTD/sodipodi-0.dtd"
   xmlns="http://www.w3.org/2000/svg"
   xmlns:svg="http://www.w3.org/2000/svg"
   xmlns:rdf="http://www.w3.org/1999/02/22-rdf-syntax-ns#"
   xmlns:cc="http://creativecommons.org/ns#"
   xmlns:dc="http://purl.org/dc/elements/1.1/">
  <sodipodi:namedview
     id="namedview1850"
     pagecolor="#ffffff"
     bordercolor="#666666"
     borderopacity="1.0"
     inkscape:pageshadow="2"
     inkscape:pageopacity="0.0"
     inkscape:pagecheckerboard="0"
     showgrid="false"
     inkscape:zoom="16.321429"
     inkscape:cx="14"
     inkscape:cy="14.030635"
     inkscape:window-width="1366"
     inkscape:window-height="704"
     inkscape:window-x="0"
     inkscape:window-y="0"
     inkscape:window-maximized="1"
     inkscape:current-layer="svg1848" />
  <defs
     id="defs1828">
    <style
       id="style1826">.cls-1{fill:none;}.cls-2{fill:#2e3243;}</style>
  </defs>
  <title
     id="title1830">document</title>
  <g
     id="Layer_2"
     data-name="Layer 2">
    <g
       id="Layer_1-2"
       data-name="Layer 1">
      <g
         id="Symbols">
        <g
           id="Files">
          <g
             id="Rectangle">
            <rect
               class="cls-1"
               width="28"
               height="28"
               id="rect1832" />
          </g>
          <g
             id="Path">
            <path
               class="cls-2"
               d="M18.38,25.56H6.12a1.94,1.94,0,0,1-1.93-1.94V7.88A1.94,1.94,0,0,1,6.12,5.94h8.76a1,1,0,0,1,.74.31L20,10.62a1.07,1.07,0,0,1,.31.76V23.62A1.94,1.94,0,0,1,18.38,25.56ZM6.31,23.44H18.19V11.81L14.44,8.06H6.31Z"
               id="path1835"
               style="fill:#ffffff;fill-opacity:1" />
          </g>
          <path
             class="cls-2"
             d="M21.88,22.06H19.25a1.06,1.06,0,0,1,0-2.12h2.44V8.31L17.94,4.56H9.81V7A1.06,1.06,0,0,1,7.69,7V4.38A1.94,1.94,0,0,1,9.62,2.44h8.76a1,1,0,0,1,.74.31L23.5,7.12a1.07,1.07,0,0,1,.31.76V20.12A1.94,1.94,0,0,1,21.88,22.06Z"
             id="path1838"
             style="fill:#ffffff;fill-opacity:1" />
          <path
             class="cls-2"
             d="M14.88,17.69H9.62a1.07,1.07,0,0,1,0-2.13h5.26a1.07,1.07,0,0,1,0,2.13Z"
             id="path1840"
             style="fill:#ffffff;fill-opacity:1" />
          <path
             class="cls-2"
             d="M14.88,21.19H9.62a1.07,1.07,0,0,1,0-2.13h5.26a1.07,1.07,0,0,1,0,2.13Z"
             id="path1842"
             style="fill:#ffffff;fill-opacity:1" />
        </g>
      </g>
    </g>
  </g>
  <metadata
     id="metadata2157">
    <rdf:RDF>
      <cc:Work
         rdf:about="">
        <dc:title>document</dc:title>
      </cc:Work>
    </rdf:RDF>
  </metadata>
</svg>
