<svg xmlns="http://www.w3.org/2000/svg" viewBox="0 0 28 28"><defs><style>.cls-1{fill:none;}.cls-2{fill:#2e3243;}</style></defs><title>document</title><g id="Layer_2" data-name="Layer 2"><g id="Layer_1-2" data-name="Layer 1"><g id="Symbols"><g id="Files"><g id="Rectangle"><rect class="cls-1" width="28" height="28"/></g><g id="Path"><path class="cls-2" d="M18.38,25.56H6.12a1.94,1.94,0,0,1-1.93-1.94V7.88A1.94,1.94,0,0,1,6.12,5.94h8.76a1,1,0,0,1,.74.31L20,10.62a1.07,1.07,0,0,1,.31.76V23.62A1.94,1.94,0,0,1,18.38,25.56ZM6.31,23.44H18.19V11.81L14.44,8.06H6.31Z"/></g><path class="cls-2" d="M21.88,22.06H19.25a1.06,1.06,0,0,1,0-2.12h2.44V8.31L17.94,4.56H9.81V7A1.06,1.06,0,0,1,7.69,7V4.38A1.94,1.94,0,0,1,9.62,2.44h8.76a1,1,0,0,1,.74.31L23.5,7.12a1.07,1.07,0,0,1,.31.76V20.12A1.94,1.94,0,0,1,21.88,22.06Z"/><path class="cls-2" d="M14.88,17.69H9.62a1.07,1.07,0,0,1,0-2.13h5.26a1.07,1.07,0,0,1,0,2.13Z"/><path class="cls-2" d="M14.88,21.19H9.62a1.07,1.07,0,0,1,0-2.13h5.26a1.07,1.07,0,0,1,0,2.13Z"/></g></g></g></g></svg>