<?xml version="1.0" encoding="utf-8"?>
<!-- Generator: Adobe Illustrator 20.0.0, SVG Export Plug-In . SVG Version: 6.00 Build 0)  -->
<svg version="1.1" id="Layer_1" xmlns="http://www.w3.org/2000/svg" x="0px" y="0px"
     viewBox="0 0 16 16" style="enable-background:new 0 0 16 16;" xml:space="preserve">
<style type="text/css">
	.st0{fill:#818E94;}
</style>
<title>instagram [#167]</title>
<desc>Created with Sketch.</desc>
<g id="Symbols">
	<g id="Icons-_x2F_-24px-_x2F_-Social-_x2F_-Instagram" transform="translate(-4.000000, -4.000000)">
		<path id="instagram-_x5B__x23_167_x5D_" class="st0" d="M8.7,4.1C7.4,4.2,6.3,4.5,5.4,5.4s-1.2,2-1.3,3.3c0,0.8-0.3,6.9,0.4,8.5
			c0.4,1.1,1.2,1.9,2.3,2.3c0.5,0.2,1.1,0.3,1.9,0.4c7.1,0.3,9.7,0.1,10.8-2.7c0.2-0.5,0.3-1.1,0.4-1.9c0.3-7.1-0.1-8.6-1.3-9.9
			C17.6,4.4,16.5,3.7,8.7,4.1 M8.8,18.5c-0.8,0-1.2-0.2-1.5-0.3c-0.7-0.3-1.2-0.8-1.5-1.5c-0.5-1.2-0.3-7-0.3-7.9s0.2-1.7,0.9-2.4
			c0.8-0.8,1.8-1.2,8.8-0.9c0.9,0,1.7,0.2,2.4,0.9c0.8,0.8,1.2,1.8,0.9,8.8c0,0.8-0.2,1.2-0.3,1.5C17.5,18.5,15.8,18.8,8.8,18.5
			 M15.3,7.8c0,0.5,0.4,1,1,1c0.5,0,1-0.4,1-1s-0.4-1-1-1C15.7,6.8,15.3,7.2,15.3,7.8 M7.9,12c0,2.3,1.8,4.1,4.1,4.1
			s4.1-1.8,4.1-4.1S14.2,7.9,12,7.9S7.9,9.7,7.9,12 M9.3,12c0-1.5,1.2-2.6,2.7-2.6s2.7,1.2,2.7,2.6c0,1.5-1.2,2.6-2.7,2.6
			S9.3,13.5,9.3,12"/>
	</g>
</g>
</svg>
