<?xml version="1.0" encoding="utf-8"?>
<!-- Generator: Adobe Illustrator 20.0.0, SVG Export Plug-In . SVG Version: 6.00 Build 0)  -->
<svg version="1.1" id="Layer_1" xmlns="http://www.w3.org/2000/svg" x="0px" y="0px"
     viewBox="0 0 16 16" style="enable-background:new 0 0 16 16;" xml:space="preserve">
<style type="text/css">
	.st0{fill:#818E94;}
</style>
<title>linkedin [#161]</title>
<desc>Created with Sketch.</desc>
<g id="Symbols">
	<g id="Icons-_x2F_-24px-_x2F_-Social-_x2F_-Linkedin" transform="translate(-4.000000, -4.000000)">
		<path id="linkedin-_x5B__x23_161_x5D_" class="st0" d="M20,20.1h-3.2v-5.6c0-1.5-0.7-2.4-1.9-2.4c-1.3,0-2.1,0.9-2.1,2.4v5.6H9.6
			V9.7h3.2v1.2c0,0,1-1.8,3.3-1.8s3.9,1.4,3.9,4.2V20.1L20,20.1z M6,8C4.9,8,4,7.1,4,6s0.9-2,2-2s2,0.9,2,2C7.9,7.2,7,8,6,8L6,8z
			 M4,20.1h4V9.7H4V20.1z"/>
	</g>
</g>
</svg>
