<!-- Generated by IcoMoon.io -->
<svg version="1.1" xmlns="http://www.w3.org/2000/svg" width="512" height="512" viewBox="0 0 512 512">
<title></title>
<g id="icomoon-ignore">
</g>
<path d="M256 0c-141.2 0-256 114.8-256 256s114.8 256 256 256 256-114.8 256-256-114.8-256-256-256zM256 477.8c-22.9 0-44.9-3.5-65.7-9.9 9-14.7 22.6-38.9 27.6-58.1 2.7-10.4 13.8-52.7 13.8-52.7 7.2 13.8 28.4 25.5 50.8 25.5 66.9 0 115.1-61.5 115.1-138 0-73.3-59.8-128.1-136.7-128.1-95.7 0-146.5 64.3-146.5 134.2 0 32.5 17.3 73 45 85.9 4.2 2 6.4 1.1 7.4-3 0.7-3.1 4.5-18.1 6.2-25.2 0.5-2.2 0.3-4.2-1.5-6.4-9.2-11.1-16.5-31.6-16.5-50.6 0-48.9 37-96.3 100.1-96.3 54.5 0 92.6 37.1 92.6 90.2 0 60-30.3 101.6-69.7 101.6-21.8 0-38.1-18-32.8-40.1 6.3-26.4 18.4-54.8 18.4-73.8 0-17-9.1-31.2-28.1-31.2-22.3 0-40.1 23-40.1 53.9 0 19.6 6.6 32.9 6.6 32.9s-22 92.9-26 110.2c-4.5 19.2-2.7 46.1-0.8 63.6-82.5-32.2-141-112.4-141-206.4 0-122.5 99.3-221.8 221.8-221.8s221.8 99.3 221.8 221.8c0 122.5-99.3 221.8-221.8 221.8z"></path>
</svg>
