<?xml version="1.0" encoding="UTF-8" standalone="no"?>
<svg
   viewBox="0 0 28 28"
   version="1.1"
   id="svg136"
   sodipodi:docname="preview-icon-white.svg"
   inkscape:version="1.1.2 (0a00cf5339, 2022-02-04)"
   xmlns:inkscape="http://www.inkscape.org/namespaces/inkscape"
   xmlns:sodipodi="http://sodipodi.sourceforge.net/DTD/sodipodi-0.dtd"
   xmlns="http://www.w3.org/2000/svg"
   xmlns:svg="http://www.w3.org/2000/svg"
   xmlns:rdf="http://www.w3.org/1999/02/22-rdf-syntax-ns#"
   xmlns:cc="http://creativecommons.org/ns#"
   xmlns:dc="http://purl.org/dc/elements/1.1/">
  <sodipodi:namedview
     id="namedview138"
     pagecolor="#ffffff"
     bordercolor="#666666"
     borderopacity="1.0"
     inkscape:pageshadow="2"
     inkscape:pageopacity="0.0"
     inkscape:pagecheckerboard="0"
     showgrid="false"
     inkscape:zoom="17.214286"
     inkscape:cx="13.622407"
     inkscape:cy="14"
     inkscape:window-width="1366"
     inkscape:window-height="704"
     inkscape:window-x="0"
     inkscape:window-y="0"
     inkscape:window-maximized="1"
     inkscape:current-layer="Eye" />
  <defs
     id="defs118">
    <style
       id="style116">.cls-1{fill:none;}.cls-2{fill:#2e3243;}</style>
  </defs>
  <title
     id="title120">Asset 1</title>
  <g
     id="Layer_2"
     data-name="Layer 2">
    <g
       id="Layer_1-2"
       data-name="Layer 1">
      <g
         id="Symbols">
        <g
           id="Preview">
          <g
             id="Eye">
            <g
               id="Rectangle">
              <rect
                 class="cls-1"
                 width="28"
                 height="28"
                 id="rect122" />
            </g>
            <g
               id="Path">
              <path
                 class="cls-2"
                 d="M14,22.93C4.67,22.93.94,14.78.78,14.43a1.07,1.07,0,0,1,0-.86C.94,13.22,4.67,5.06,14,5.06s13.06,8.16,13.22,8.51a1.07,1.07,0,0,1,0,.86C27.06,14.78,23.33,22.93,14,22.93ZM2.94,14A12.64,12.64,0,0,0,14,20.81c6.83,0,10.21-5.26,11.06-6.81A12.66,12.66,0,0,0,14,7.18,12.64,12.64,0,0,0,2.94,14Z"
                 id="path125"
                 style="fill:#ffffff;fill-opacity:1" />
            </g>
            <g
               id="Oval">
              <path
                 class="cls-2"
                 d="M14,19.44A5.44,5.44,0,1,1,19.44,14,5.45,5.45,0,0,1,14,19.44Zm0-8.75A3.31,3.31,0,1,0,17.31,14,3.31,3.31,0,0,0,14,10.69Z"
                 id="path128"
                 style="fill:#ffffff;fill-opacity:1" />
            </g>
          </g>
        </g>
      </g>
    </g>
  </g>
  <metadata
     id="metadata1739">
    <rdf:RDF>
      <cc:Work
         rdf:about="">
        <dc:title>Asset 1</dc:title>
      </cc:Work>
    </rdf:RDF>
  </metadata>
</svg>
