<svg xmlns="http://www.w3.org/2000/svg" viewBox="0 0 28 28"><defs><style>.cls-1{fill:none;}.cls-2{fill:#2e3243;}</style></defs><title>Asset 1</title><g id="Layer_2" data-name="Layer 2"><g id="Layer_1-2" data-name="Layer 1"><g id="Symbols"><g id="Preview"><g id="Eye"><g id="Rectangle"><rect class="cls-1" width="28" height="28"/></g><g id="Path"><path class="cls-2" d="M14,22.93C4.67,22.93.94,14.78.78,14.43a1.07,1.07,0,0,1,0-.86C.94,13.22,4.67,5.06,14,5.06s13.06,8.16,13.22,8.51a1.07,1.07,0,0,1,0,.86C27.06,14.78,23.33,22.93,14,22.93ZM2.94,14A12.64,12.64,0,0,0,14,20.81c6.83,0,10.21-5.26,11.06-6.81A12.66,12.66,0,0,0,14,7.18,12.64,12.64,0,0,0,2.94,14Z"/></g><g id="Oval"><path class="cls-2" d="M14,19.44A5.44,5.44,0,1,1,19.44,14,5.45,5.45,0,0,1,14,19.44Zm0-8.75A3.31,3.31,0,1,0,17.31,14,3.31,3.31,0,0,0,14,10.69Z"/></g></g></g></g></g></g></svg>